<svg width="512" height="512" viewBox="0 0 512 512" fill="none" xmlns="http://www.w3.org/2000/svg">
<rect width="512" height="512" rx="256" fill="url(#paint0_linear_2268_227)"/>
<path d="M343.325 228.182H285.621L276.106 283.167H236.204L188.936 337.553C188.936 337.553 191.084 339.645 194.46 339.645H319.385C322.453 339.645 324.909 337.553 325.523 334.565L343.325 228.182Z" fill="url(#paint1_linear_2268_227)"/>
<path d="M166.217 172C162.534 172 159.465 175.287 160.079 178.873L186.168 332.77C186.475 334.563 187.396 336.356 188.931 337.551C188.931 337.551 191.079 339.643 194.456 339.643L242.952 283.165H236.199L225.456 228.179H285.923H343.628L351.915 178.873C352.528 175.287 349.767 172 345.776 172H166.217Z" fill="white"/>
<defs>
<linearGradient id="paint0_linear_2268_227" x1="555.883" y1="70.9526" x2="175.271" y2="291.269" gradientUnits="userSpaceOnUse">
<stop offset="0.176" stop-color="#0052CC"/>
<stop offset="1" stop-color="#2684FF"/>
</linearGradient>
<linearGradient id="paint1_linear_2268_227" x1="350.884" y1="252.646" x2="262.308" y2="314.229" gradientUnits="userSpaceOnUse">
<stop offset="0.0718327" stop-color="white" stop-opacity="0.4"/>
<stop offset="1" stop-color="white"/>
</linearGradient>
</defs>
</svg>
