<svg width="512" height="512" viewBox="0 0 512 512" fill="none" xmlns="http://www.w3.org/2000/svg">
<rect width="512" height="512" rx="256" fill="url(#paint0_linear_3546_86)"/>
<path d="M175.344 147.828C207.789 172.267 242.686 221.819 255.5 248.409C268.314 221.819 303.211 172.267 335.656 147.828C359.067 130.194 397 116.55 397 159.966C397 168.637 392.045 232.806 389.139 243.224C379.037 279.442 342.227 288.68 309.483 283.089C366.718 292.862 381.278 325.234 349.833 357.607C290.114 419.088 264 342.181 257.309 322.475C256.082 318.862 255.508 317.172 255.5 318.609C255.492 317.172 254.918 318.862 253.691 322.475C247 342.181 220.886 419.088 161.167 357.607C129.722 325.234 144.282 292.862 201.517 283.089C168.773 288.68 131.963 279.442 121.861 243.224C118.955 232.806 114 168.637 114 159.966C114 116.55 151.933 130.194 175.344 147.828Z" fill="white"/>
<defs>
<linearGradient id="paint0_linear_3546_86" x1="256" y1="0" x2="256" y2="512" gradientUnits="userSpaceOnUse">
<stop stop-color="#0B7BFF"/>
<stop offset="1" stop-color="#59B9FF"/>
</linearGradient>
</defs>
</svg>
