<svg width="512" height="512" viewBox="0 0 512 512" fill="none" xmlns="http://www.w3.org/2000/svg">
<rect width="512" height="512" rx="256" fill="#5865F2"/>
<path d="M322.642 195.187C310.028 189.412 296.711 185.314 283.031 183C281.159 186.346 279.466 189.789 277.957 193.314C263.386 191.119 248.568 191.119 233.997 193.314C232.488 189.79 230.794 186.347 228.923 183C215.235 185.334 201.909 189.441 189.282 195.217C164.213 232.306 157.418 268.474 160.815 304.129C175.496 314.975 191.928 323.224 209.397 328.517C213.33 323.227 216.811 317.615 219.802 311.74C214.121 309.618 208.638 307 203.416 303.917C204.791 302.92 206.135 301.894 207.433 300.897C222.627 308.042 239.21 311.747 256 311.747C272.789 311.747 289.372 308.042 304.566 300.897C305.88 301.969 307.224 302.996 308.583 303.917C303.351 307.005 297.858 309.628 292.168 311.755C295.155 317.627 298.636 323.235 302.572 328.517C320.056 323.246 336.501 315 351.184 304.144C355.171 262.796 344.373 226.96 322.642 195.187ZM224.105 282.201C214.637 282.201 206.814 273.609 206.814 263.038C206.814 252.467 214.365 243.798 224.075 243.798C233.785 243.798 241.548 252.467 241.381 263.038C241.215 273.609 233.755 282.201 224.105 282.201ZM287.894 282.201C278.41 282.201 270.618 273.609 270.618 263.038C270.618 252.467 278.169 243.798 287.894 243.798C297.619 243.798 305.321 252.467 305.155 263.038C304.989 273.609 297.544 282.201 287.894 282.201Z" fill="white"/>
</svg>
