<svg width="512" height="512" viewBox="0 0 512 512" fill="none" xmlns="http://www.w3.org/2000/svg">
<rect width="512" height="512" rx="256" fill="#FB923C"/>
<path d="M281.359 183.549H263.246C251.236 183.549 239.718 188.32 231.226 196.812C222.734 205.304 217.963 216.822 217.963 228.832V317.587V290.416C217.963 278.406 222.734 266.888 231.226 258.396C239.718 249.904 251.236 245.133 263.246 245.133H281.359" stroke="white" stroke-width="25"/>
<path d="M294.038 199.85C303.041 199.85 310.34 192.551 310.34 183.548C310.34 174.545 303.041 167.246 294.038 167.246C285.035 167.246 277.736 174.545 277.736 183.548C277.736 192.551 285.035 199.85 294.038 199.85Z" stroke="white" stroke-width="15"/>
<path d="M294.038 261.434C303.041 261.434 310.34 254.135 310.34 245.132C310.34 236.129 303.041 228.83 294.038 228.83C285.035 228.83 277.736 236.129 277.736 245.132C277.736 254.135 285.035 261.434 294.038 261.434Z" stroke="white" stroke-width="15"/>
<path d="M217.962 344.756C226.965 344.756 234.264 337.458 234.264 328.454C234.264 319.451 226.965 312.152 217.962 312.152C208.959 312.152 201.66 319.451 201.66 328.454C201.66 337.458 208.959 344.756 217.962 344.756Z" stroke="white" stroke-width="15"/>
</svg>
