<svg width="512" height="512" viewBox="0 0 512 512" fill="none" xmlns="http://www.w3.org/2000/svg">
<rect width="512" height="512" rx="256" fill="#609926"/>
<path d="M348.457 199.054C347.205 197.802 345.525 197.832 345.525 197.832C345.525 197.832 309.729 199.848 291.19 200.276C287.128 200.367 283.096 200.459 279.095 200.489C279.095 212.432 279.095 224.374 279.095 236.285C277.415 235.491 275.705 234.667 274.025 233.872C274.025 222.755 273.994 200.52 273.994 200.52C265.137 200.642 246.75 199.848 246.75 199.848C246.75 199.848 203.563 197.68 198.86 197.252C195.867 197.069 191.988 196.611 186.948 197.71C184.291 198.26 176.716 199.97 170.516 205.926C156.772 218.174 160.285 237.66 160.712 240.592C161.231 244.165 162.82 254.092 170.394 262.735C184.383 279.87 214.498 279.472 214.498 279.472C214.498 279.472 218.193 288.299 223.844 296.424C231.479 306.533 239.329 314.413 246.964 315.36C266.206 315.36 304.659 315.329 304.659 315.329C304.659 315.329 308.324 315.36 313.303 312.184C317.579 309.587 321.396 305.037 321.396 305.037C321.396 305.037 325.336 300.822 330.834 291.201C332.514 288.238 333.919 285.367 335.141 282.649C335.141 282.649 352 246.884 352 212.065C351.664 201.528 349.068 199.665 348.457 199.054ZM196.63 261.391C188.72 258.795 185.36 255.68 185.36 255.68C185.36 255.68 179.526 251.587 176.594 243.524C171.555 230.024 176.167 221.778 176.167 221.778C176.167 221.778 178.732 214.906 187.926 212.615C192.14 211.485 197.394 211.668 197.394 211.668C197.394 211.668 199.562 229.81 202.189 240.439C204.388 249.358 209.763 264.171 209.763 264.171C209.763 264.171 201.792 263.224 196.63 261.391ZM288.349 294.255C288.349 294.255 286.486 298.684 282.363 298.959C280.592 299.081 279.217 298.592 279.217 298.592C279.217 298.592 279.126 298.562 277.598 297.951L243.116 281.152C243.116 281.152 239.787 279.411 239.206 276.388C238.535 273.914 240.031 270.859 240.031 270.859L256.616 236.682C256.616 236.682 258.082 233.72 260.342 232.712C260.525 232.62 261.044 232.406 261.716 232.254C264.19 231.612 267.214 233.109 267.214 233.109L301.025 249.51C301.025 249.51 304.873 251.251 305.698 254.458C306.278 256.718 305.545 258.734 305.148 259.711C303.224 264.415 288.349 294.255 288.349 294.255Z" fill="white"/>
<path d="M258.082 269.394C255.578 269.425 253.379 271.166 252.799 273.609C252.218 276.052 253.409 278.587 255.578 279.718C257.93 280.939 260.923 280.267 262.511 278.068C264.069 275.9 263.824 272.907 261.961 271.013L269.292 256.017C269.75 256.047 270.422 256.078 271.185 255.864C272.437 255.589 273.354 254.764 273.354 254.764C274.637 255.314 275.98 255.925 277.385 256.627C278.851 257.36 280.226 258.124 281.478 258.857C281.753 259.01 282.028 259.193 282.333 259.437C282.822 259.834 283.372 260.384 283.769 261.117C284.349 262.797 283.188 265.668 283.188 265.668C282.486 267.989 277.569 278.068 277.569 278.068C275.095 278.007 272.896 279.595 272.163 281.886C271.368 284.36 272.499 287.17 274.881 288.392C277.263 289.613 280.195 288.911 281.753 286.773C283.28 284.696 283.158 281.794 281.417 279.87C281.997 278.74 282.547 277.61 283.127 276.419C284.654 273.243 287.251 267.134 287.251 267.134C287.525 266.615 288.992 263.988 288.075 260.628C287.312 257.147 284.227 255.528 284.227 255.528C280.501 253.115 275.308 250.885 275.308 250.885C275.308 250.885 275.308 249.633 274.972 248.717C274.637 247.77 274.117 247.159 273.781 246.793C275.217 243.83 276.652 240.898 278.088 237.935C276.836 237.325 275.614 236.714 274.362 236.072C272.896 239.065 271.399 242.089 269.933 245.082C267.887 245.052 265.993 246.151 265.016 247.953C263.977 249.877 264.191 252.26 265.596 254.001C263.091 259.132 260.587 264.263 258.082 269.394Z" fill="white"/>
</svg>
