<svg width="512" height="512" viewBox="0 0 512 512" fill="none" xmlns="http://www.w3.org/2000/svg">
<rect width="512" height="512" rx="256" fill="#24292F"/>
<g clip-path="url(#clip0_2268_181)">
<path fill-rule="evenodd" clip-rule="evenodd" d="M255.714 162C202.787 162 160 205.102 160 258.425C160 301.049 187.415 337.129 225.447 349.899C230.201 350.859 231.943 347.825 231.943 345.272C231.943 343.036 231.786 335.374 231.786 327.39C205.161 333.139 199.617 315.896 199.617 315.896C195.338 304.721 188.998 301.848 188.998 301.848C180.283 295.942 189.633 295.942 189.633 295.942C199.299 296.58 204.372 305.839 204.372 305.839C212.927 320.525 226.714 316.376 232.261 313.821C233.052 307.595 235.589 303.285 238.283 300.89C217.048 298.655 194.705 290.354 194.705 253.316C194.705 242.779 198.506 234.159 204.528 227.454C203.578 225.06 200.249 215.16 205.48 201.911C205.48 201.911 213.562 199.356 231.784 211.808C239.586 209.698 247.632 208.624 255.714 208.615C263.796 208.615 272.034 209.734 279.641 211.808C297.866 199.356 305.947 201.911 305.947 201.911C311.178 215.16 307.848 225.06 306.898 227.454C313.079 234.159 316.723 242.779 316.723 253.316C316.723 290.354 294.38 298.494 272.986 300.89C276.473 303.923 279.483 309.67 279.483 318.77C279.483 331.701 279.326 342.078 279.326 345.27C279.326 347.825 281.07 350.859 285.823 349.901C323.854 337.128 351.269 301.049 351.269 258.425C351.426 205.102 308.483 162 255.714 162Z" fill="white"/>
</g>
<defs>
<clipPath id="clip0_2268_181">
<rect width="192" height="188.082" fill="white" transform="translate(160 162)"/>
</clipPath>
</defs>
</svg>
