<svg width="512" height="512" viewBox="0 0 512 512" fill="none" xmlns="http://www.w3.org/2000/svg">
<rect width="512" height="512" rx="256" fill="#171321"/>
<path d="M348.804 237.192L348.534 236.503L322.401 168.302C321.87 166.965 320.928 165.831 319.712 165.062C318.495 164.307 317.076 163.943 315.646 164.02C314.216 164.097 312.843 164.611 311.714 165.492C310.598 166.399 309.788 167.628 309.395 169.011L291.75 222.996H220.3L202.655 169.011C202.272 167.62 201.461 166.385 200.336 165.482C199.207 164.601 197.834 164.087 196.404 164.01C194.974 163.933 193.555 164.297 192.338 165.052C191.124 165.824 190.184 166.957 189.648 168.292L163.466 236.463L163.206 237.152C159.444 246.982 158.98 257.768 161.883 267.884C164.786 278 170.9 286.898 179.301 293.237L179.391 293.307L179.631 293.477L219.44 323.288L239.135 338.194L251.131 347.252C252.535 348.317 254.248 348.894 256.01 348.894C257.772 348.894 259.485 348.317 260.889 347.252L272.885 338.194L292.58 323.288L332.629 293.297L332.729 293.217C341.112 286.877 347.211 277.988 350.11 267.885C353.008 257.783 352.55 247.012 348.804 237.192Z" fill="#E24329"/>
<path d="M348.804 237.192L348.534 236.502C335.801 239.116 323.802 244.509 313.394 252.298L256 295.695C275.545 310.481 292.56 323.328 292.56 323.328L332.609 293.336L332.709 293.256C341.104 286.917 347.212 278.022 350.115 267.911C353.018 257.8 352.558 247.019 348.804 237.192Z" fill="#FC6D26"/>
<path d="M219.441 323.328L239.136 338.233L251.133 347.291C252.536 348.356 254.249 348.933 256.011 348.933C257.773 348.933 259.487 348.356 260.89 347.291L272.887 338.233L292.581 323.328C292.581 323.328 275.546 310.441 256.001 295.695C236.457 310.441 219.441 323.328 219.441 323.328Z" fill="#FCA326"/>
<path d="M198.596 252.297C188.197 244.493 176.2 239.086 163.466 236.462L163.206 237.152C159.444 246.981 158.98 257.767 161.883 267.883C164.786 277.999 170.9 286.898 179.301 293.236L179.391 293.306L179.631 293.476L219.44 323.288C219.44 323.288 236.435 310.441 256 295.655L198.596 252.297Z" fill="#FC6D26"/>
</svg>
