<svg width="512" height="512" viewBox="0 0 512 512" fill="none" xmlns="http://www.w3.org/2000/svg">
<rect width="512" height="512" rx="256" fill="white"/>
<g clip-path="url(#clip0_2268_240)">
<path d="M257.961 238.148V276.086H310.681C308.366 288.286 301.419 298.617 291 305.563L322.792 330.231C341.315 313.133 352.002 288.02 352.002 258.187C352.002 251.241 351.379 244.561 350.221 238.15L257.961 238.148Z" fill="#4285F4"/>
<path d="M203.061 274.604L195.891 280.093L170.51 299.863C186.629 331.833 219.665 353.919 257.958 353.919C284.407 353.919 306.581 345.192 322.789 330.231L290.997 305.563C282.27 311.44 271.138 315.003 257.958 315.003C232.489 315.003 210.849 297.815 203.101 274.661L203.061 274.604Z" fill="#34A853"/>
<path d="M170.51 212.056C163.831 225.235 160.002 240.107 160.002 255.959C160.002 271.81 163.831 286.683 170.51 299.862C170.51 299.951 203.104 274.571 203.104 274.571C201.145 268.693 199.987 262.46 199.987 255.958C199.987 249.456 201.145 243.223 203.104 237.345L170.51 212.056Z" fill="#FBBC05"/>
<path d="M257.96 197.006C272.387 197.006 285.211 201.993 295.452 211.611L323.504 183.559C306.495 167.708 284.41 158 257.96 158C219.667 158 186.629 179.996 170.51 212.056L203.103 237.347C210.85 214.193 232.491 197.006 257.96 197.006Z" fill="#EA4335"/>
</g>
<defs>
<clipPath id="clip0_2268_240">
<rect width="192" height="195.918" fill="white" transform="translate(160 158)"/>
</clipPath>
</defs>
</svg>
