<svg width="512" height="512" viewBox="0 0 512 512" fill="none" xmlns="http://www.w3.org/2000/svg">
<rect width="512" height="512" rx="256" fill="url(#paint0_linear_2268_218)"/>
<path d="M311.917 263.445C304.655 264.25 298.618 263.834 298.618 263.834V218.348H307.886C313.923 218.348 319.571 220.771 323.577 225.613C326.386 228.841 328.419 233.264 328.416 239.72C328.416 254.602 320.765 260.639 311.917 263.448V263.445ZM350.98 231.65C348.171 217.542 340.91 208.697 332.87 203.466C324.83 197.818 315.148 195.006 305.494 195.006L166.945 195C162.102 195 160.099 199.842 160.099 202.262V203.876C160.099 203.876 159.707 265.08 160.482 298.104C161.677 317.439 181.012 317.439 181.012 317.439C181.012 317.439 244.22 317.442 274.823 317.056C276.438 317.056 277.632 317.056 279.246 316.667C296.551 312.244 298.165 296.137 298.165 287.261C332.833 288.817 357.4 264.253 350.977 231.647L350.98 231.65Z" fill="white"/>
<path d="M228.143 291.625C229.757 292.43 230.562 291.625 230.562 291.625C230.562 291.625 252.709 271.484 262.78 259.83C271.626 249.37 272.045 232.038 257.132 225.612C241.83 219.155 229.337 233.26 229.337 233.26C218.458 221.186 201.962 221.991 194.311 230.031C186.66 238.071 189.469 251.787 195.116 259.827C200.345 267.088 223.714 288.011 227.331 291.239C227.331 290.819 227.751 291.239 228.137 291.628L228.143 291.625Z" fill="#FF5E5B"/>
<defs>
<linearGradient id="paint0_linear_2268_218" x1="114.593" y1="-354.799" x2="333.927" y2="224.918" gradientUnits="userSpaceOnUse">
<stop stop-color="#FF4EA3"/>
<stop offset="1" stop-color="#FF5E5B"/>
</linearGradient>
</defs>
</svg>
