<svg width="512" height="512" viewBox="0 0 512 512" fill="none" xmlns="http://www.w3.org/2000/svg">
<rect width="512" height="512" rx="256" fill="url(#paint0_linear_2268_224)"/>
<g clip-path="url(#clip0_2268_224)">
<path d="M351.225 200.597C348.268 178.961 329.109 161.911 306.397 158.607C302.566 158.048 288.048 156.017 254.418 156.017H254.166C220.527 156.017 213.31 158.048 209.478 158.607C187.399 161.819 167.236 177.14 162.344 199.032C159.991 209.813 159.74 221.766 160.177 232.73C160.8 248.454 160.921 264.15 162.372 279.81C163.375 290.211 165.124 300.53 167.608 310.689C172.258 329.451 191.082 345.065 209.525 351.435C229.27 358.078 250.505 359.181 270.851 354.62C273.09 354.107 275.303 353.512 277.492 352.835C282.43 351.288 288.225 349.559 292.484 346.52C292.543 346.478 292.591 346.422 292.624 346.359C292.658 346.296 292.677 346.226 292.679 346.154V330.98C292.678 330.913 292.662 330.847 292.632 330.787C292.602 330.727 292.558 330.675 292.505 330.633C292.451 330.592 292.389 330.563 292.323 330.549C292.256 330.534 292.188 330.534 292.121 330.55C279.086 333.614 265.727 335.15 252.325 335.126C229.26 335.126 223.057 324.353 221.28 319.869C219.852 315.993 218.946 311.95 218.583 307.843C218.579 307.774 218.592 307.705 218.621 307.642C218.649 307.579 218.692 307.523 218.747 307.479C218.801 307.436 218.865 307.405 218.934 307.39C219.002 307.376 219.073 307.377 219.141 307.394C231.96 310.438 245.1 311.974 258.287 311.97C261.458 311.97 264.62 311.97 267.792 311.888C281.054 311.522 295.032 310.854 308.081 308.346C308.406 308.282 308.732 308.227 309.011 308.145C329.593 304.255 349.179 292.046 351.169 261.13C351.244 259.913 351.43 248.381 351.43 247.118C351.439 242.826 352.834 216.668 351.225 200.597ZM319.548 277.741H297.906V225.574C297.906 214.591 293.256 208.99 283.797 208.99C273.4 208.99 268.191 215.616 268.191 228.704V257.258H246.68V228.704C246.68 215.616 241.462 208.99 231.064 208.99C221.662 208.99 216.965 214.591 216.956 225.574V277.741H195.332V223.99C195.332 213.007 198.181 204.282 203.879 197.815C209.757 191.363 217.467 188.049 227.037 188.049C238.114 188.049 246.484 192.241 252.065 200.615L257.45 209.511L262.844 200.615C268.424 192.241 276.794 188.049 287.853 188.049C297.413 188.049 305.123 191.363 311.02 197.815C316.718 204.276 319.567 213.001 319.567 223.99L319.548 277.741Z" fill="white"/>
</g>
<defs>
<linearGradient id="paint0_linear_2268_224" x1="256" y1="0" x2="256" y2="512" gradientUnits="userSpaceOnUse">
<stop stop-color="#6364FF"/>
<stop offset="1" stop-color="#563ACC"/>
</linearGradient>
<clipPath id="clip0_2268_224">
<rect width="192" height="204.973" fill="white" transform="translate(160 154)"/>
</clipPath>
</defs>
</svg>
