<svg width="512" height="512" viewBox="0 0 512 512" fill="none" xmlns="http://www.w3.org/2000/svg">
<rect width="512" height="512" rx="256" fill="#313131"/>
<path d="M199 346L190 328H208L199 346Z" stroke="white" stroke-width="4.5"/>
<path d="M314.5 346L305.5 328H323.5L314.5 346Z" stroke="white" stroke-width="4.5"/>
<path d="M334 316V172L297.47 183.24C295.842 183.741 294.137 183.89 292.445 183.692C285.911 182.927 268.242 181 256 181C243.758 181 226.089 182.927 219.554 183.692C217.862 183.89 216.158 183.741 214.53 183.24L178 172V316C178 322.627 183.373 328 190 328H322C328.627 328 334 322.627 334 316Z" stroke="white" stroke-width="7.5"/>
<path d="M209.5 262V226M209.5 226H193M209.5 226H226M287.5 223V244C287.5 252.284 294.216 259 302.5 259C310.784 259 317.5 252.284 317.5 244V223" stroke="white" stroke-width="7.5"/>
<path d="M256 238L244 262H268L256 238Z" stroke="white" stroke-width="4.5"/>
<path d="M163 278.5H178H193M169 264.25L178 265L187 264.25M169 292.75L178 292L187 292.75" stroke="white" stroke-width="7.5"/>
<path d="M319 278.5H334H349M325 264.25L334 265L343 264.25M325 292.75L334 292L343 292.75" stroke="white" stroke-width="7"/>
</svg>
