<svg width="512" height="512" viewBox="0 0 512 512" fill="none" xmlns="http://www.w3.org/2000/svg">
<rect width="512" height="512" rx="256" fill="#FF0000"/>
<path fill-rule="evenodd" clip-rule="evenodd" d="M331.01 193.014C339.276 195.227 345.773 201.723 347.985 209.989C351.984 224.956 352 256.203 352 256.203C352 256.203 352 287.45 347.985 302.417C345.773 310.683 339.276 317.179 331.01 319.391C316.044 323.406 256 323.406 256 323.406C256 323.406 195.956 323.406 180.989 319.391C172.723 317.179 166.227 310.683 164.014 302.417C160 287.45 160 256.203 160 256.203C160 256.203 160 224.956 164.014 209.989C166.227 201.723 172.723 195.227 180.989 193.014C195.956 189 256 189 256 189C256 189 316.044 189 331.01 193.014ZM286.663 256.207L236.783 285.003V227.41L286.663 256.207Z" fill="white"/>
</svg>
