<svg width="512" height="512" viewBox="0 0 512 512" fill="none" xmlns="http://www.w3.org/2000/svg">
<rect width="512" height="512" rx="256" fill="#E0E7FF"/>
<path d="M173.783 269.684C170.08 269.684 166.857 268.31 164.114 265.56C161.371 262.81 160 259.588 160 255.892C160 252.197 161.375 248.98 164.124 246.243C166.874 243.506 170.097 242.138 173.792 242.138C177.488 242.138 180.704 243.51 183.441 246.254C186.178 248.998 187.547 252.214 187.547 255.902C187.547 259.605 186.175 262.828 183.431 265.571C180.687 268.313 177.471 269.684 173.783 269.684ZM184.787 314.121L215.296 283.613C216.926 281.983 218.982 281.207 221.463 281.285C223.944 281.362 226.097 282.216 227.921 283.846C229.551 285.67 230.366 287.862 230.366 290.421C230.366 292.979 229.551 295.074 227.921 296.704L197.412 327.213C195.597 329.035 193.456 329.907 190.989 329.83C188.522 329.752 186.455 328.805 184.787 326.988C182.965 325.327 182.054 323.223 182.054 320.676C182.054 318.129 182.965 315.944 184.787 314.121ZM215.296 227.398L184.787 197.123C182.965 195.493 182.093 193.437 182.17 190.956C182.248 188.475 183.198 186.323 185.021 184.498C186.68 182.868 188.783 182.053 191.328 182.053C193.872 182.053 196.056 182.868 197.879 184.498L228.154 214.774C229.784 216.589 230.599 218.73 230.599 221.197C230.599 223.664 229.784 225.731 228.154 227.398C226.33 229.184 224.138 230.076 221.579 230.076C219.021 230.076 216.926 229.184 215.296 227.398ZM256.098 352C252.395 352 249.172 350.625 246.429 347.876C243.687 345.126 242.316 341.903 242.316 338.208C242.316 334.512 243.69 331.296 246.44 328.559C249.19 325.822 252.412 324.453 256.108 324.453C259.803 324.453 263.02 325.825 265.757 328.569C268.494 331.313 269.862 334.529 269.862 338.217C269.862 341.92 268.49 345.143 265.746 347.886C263.002 350.629 259.786 352 256.098 352ZM256.098 187.491C252.395 187.491 249.172 186.125 246.429 183.395C243.687 180.664 242.316 177.441 242.316 173.727C242.316 170.012 243.69 166.796 246.44 164.077C249.19 161.359 252.412 160 256.108 160C259.803 160 263.02 161.365 265.757 164.096C268.494 166.827 269.862 170.049 269.862 173.764C269.862 177.478 268.49 180.695 265.746 183.413C263.002 186.132 259.786 187.491 256.098 187.491ZM284.368 214.54L314.644 184.265C316.274 182.635 318.326 181.859 320.8 181.937C323.274 182.015 325.43 182.868 327.268 184.498C328.898 186.323 329.713 188.514 329.713 191.073C329.713 193.632 328.898 195.726 327.268 197.356L296.937 227.809C295.121 229.632 292.986 230.504 290.531 230.426C288.076 230.348 285.961 229.337 284.187 227.392C282.362 225.759 281.489 223.678 281.57 221.151C281.65 218.624 282.583 216.42 284.368 214.54ZM314.644 326.746L284.135 296.47C282.35 294.84 281.496 292.785 281.574 290.304C281.652 287.823 282.583 285.67 284.368 283.846C286.028 282.216 288.13 281.401 290.675 281.401C293.22 281.401 295.404 282.216 297.226 283.846L327.502 314.121C329.132 315.936 329.947 318.078 329.947 320.545C329.947 323.012 329.122 325.079 327.474 326.746C325.67 328.568 323.488 329.48 320.928 329.48C318.369 329.48 316.274 328.568 314.644 326.746ZM338.236 269.684C334.522 269.684 331.305 268.31 328.587 265.56C325.868 262.81 324.509 259.588 324.509 255.892C324.509 252.197 325.875 248.98 328.605 246.243C331.336 243.506 334.559 242.138 338.273 242.138C341.988 242.138 345.204 243.51 347.923 246.254C350.641 248.998 352 252.214 352 255.902C352 259.605 350.635 262.828 347.904 265.571C345.173 268.313 341.951 269.684 338.236 269.684Z" fill="#6366F1"/>
</svg>
