<svg width="2048" height="2048" viewBox="0 0 2048 2048" fill="none" xmlns="http://www.w3.org/2000/svg">
<rect width="2048" height="2048" rx="1024" fill="#0F766E"/>
<path d="M752.533 1296.07C719.111 1262.64 693.333 1223.71 675.2 1179.27C657.067 1134.82 648 1090.2 648 1045.4C648 991.356 657.6 941.756 676.8 896.6C696 851.444 724.089 810.733 761.067 774.467C789.511 745.311 824.711 721.844 866.667 704.067C908.622 686.289 956.444 672.778 1010.13 663.533C1063.82 654.289 1122.84 648.956 1187.2 647.533C1251.56 646.111 1319.64 647.533 1391.47 651.8C1397.87 723.622 1400.71 791.356 1400 855C1399.29 918.644 1394.49 977.667 1385.6 1032.07C1376.71 1086.47 1363.02 1135.36 1344.53 1178.73C1326.04 1222.11 1302.22 1258.73 1273.07 1288.6C1236.09 1325.58 1195.56 1353.67 1151.47 1372.87C1107.38 1392.07 1060.8 1401.67 1011.73 1401.67C959.822 1401.67 912.711 1393.31 870.4 1376.6C828.089 1359.89 788.8 1333.04 752.533 1296.07ZM874.133 1282.2C892.622 1294.29 913.778 1303.53 937.6 1309.93C961.422 1316.33 985.778 1319.53 1010.67 1319.53C1047.64 1319.53 1083.91 1311.71 1119.47 1296.07C1155.02 1280.42 1187.02 1258.02 1215.47 1228.87C1236.09 1206.82 1253.51 1178.38 1267.73 1143.53C1281.96 1108.69 1292.62 1069.4 1299.73 1025.67C1306.84 981.933 1311.29 934.822 1313.07 884.333C1314.84 833.844 1314.67 782.289 1312.53 729.667C1247.11 728.244 1188.09 729.133 1135.47 732.333C1082.84 735.533 1036.09 741.4 995.2 749.933C954.311 758.467 919.644 769.489 891.2 783C862.756 796.511 839.644 812.156 821.867 829.933C792 859.8 769.244 891.622 753.6 925.4C737.956 959.178 730.133 993.844 730.133 1029.4C730.133 1062.11 737.067 1096.78 750.933 1133.4C764.8 1170.02 782.4 1199.71 803.733 1222.47C839.289 1154.2 883.2 1092.87 935.467 1038.47C987.733 984.067 1045.16 940.156 1107.73 906.733C1046.58 960.778 996.8 1018.73 958.4 1080.6C920 1142.47 891.911 1209.67 874.133 1282.2Z" fill="white"/>
</svg>
